<svg width="847" height="847" viewBox="0 0 847 847" fill="none" xmlns="http://www.w3.org/2000/svg">
<g filter="url(#filter0_d_322_2)">
<path d="M108.031 231.943C125.458 211.411 236.958 102.911 244.697 96.365C252.435 89.8194 410.385 59.0987 427.922 59.2548C445.458 59.411 616.885 96.9912 644.921 123.201C672.958 149.411 765.769 292.004 773.864 343.708C781.958 395.411 742.885 606.88 742.885 606.88C742.885 606.88 599.458 736.411 567.87 750.225C536.282 764.038 375.458 806.911 337.774 796.828C300.09 786.745 205.995 715.621 205.995 715.621C205.995 715.621 76.458 530.411 69.4582 485.411C62.4584 440.412 90.6029 252.474 108.031 231.943Z" fill="#A0532A"/>
</g>
<path d="M156.791 290.01C156.791 306.436 142.563 352.426 123.956 372.136C96.6964 408.928 125.731 491.492 150.223 526.533L179.775 605.374L268.427 674.359L350.513 713.78C369.119 710.495 396.483 713.78 426.033 713.78C455.583 713.78 510.006 717.065 544.236 690.785C578.467 664.504 619.756 654.648 626.322 648.079C632.888 641.51 688.706 579.094 688.706 579.094C688.706 579.094 714.974 497.625 714.974 487.113C714.974 476.601 728.108 444.407 737.958 421.412C731.391 395.131 708.407 366.223 708.407 329.431C708.407 292.638 675.572 234.164 655.872 221.024C636.172 207.885 586.276 168.464 583.637 158.609C580.997 148.754 514.684 122.473 494.985 115.904C475.285 109.334 504.834 125.758 426.033 115.904C347.231 106.049 311.113 135.614 294.695 142.184C278.277 148.753 272.556 178.319 238.876 188.174C205.196 198.03 156.791 273.585 156.791 290.01Z" fill="#C59132"/>
<defs>
<filter id="filter0_d_322_2" x="64.3623" y="59.2542" width="714.605" height="747.094" filterUnits="userSpaceOnUse" color-interpolation-filters="sRGB">
<feFlood flood-opacity="0" result="BackgroundImageFix"/>
<feColorMatrix in="SourceAlpha" type="matrix" values="0 0 0 0 0 0 0 0 0 0 0 0 0 0 0 0 0 0 127 0" result="hardAlpha"/>
<feOffset dy="4"/>
<feGaussianBlur stdDeviation="2"/>
<feComposite in2="hardAlpha" operator="out"/>
<feColorMatrix type="matrix" values="0 0 0 0 0 0 0 0 0 0 0 0 0 0 0 0 0 0 0.25 0"/>
<feBlend mode="normal" in2="BackgroundImageFix" result="effect1_dropShadow_322_2"/>
<feBlend mode="normal" in="SourceGraphic" in2="effect1_dropShadow_322_2" result="shape"/>
</filter>
</defs>
</svg>
