<svg width="847" height="846" viewBox="0 0 847 846" fill="none" xmlns="http://www.w3.org/2000/svg">
<g filter="url(#filter0_d_294_2)">
<path d="M201.816 208.898C219.813 195.408 330.72 127.721 338.235 123.825C345.749 119.929 480.065 124.189 494.316 127.566C508.567 130.944 641.197 193.319 659.17 219.859C677.143 246.399 726.291 379.717 723.299 423.32C720.308 466.923 649.295 631.884 649.295 631.884C649.295 631.884 508.492 710.779 480.209 716.173C451.926 721.567 313.018 726.671 284.2 711.475C255.382 696.28 191.941 620.923 191.941 620.923C191.941 620.923 120.786 446.093 123.426 408.152C126.067 370.211 183.819 222.387 201.816 208.898Z" fill="#A0532A"/>
</g>
<path d="M230.76 265.221C227.716 278.596 207.605 313.41 188.801 326.011C159.783 350.919 168.123 423.534 181.573 456.607L191.025 526.286L250.429 598.894L309.966 646.209C325.727 646.982 347.401 654.729 371.464 660.206C395.527 665.683 439.236 678.446 471.981 663.39C504.726 648.334 540.176 647.961 546.74 643.828C553.304 639.696 610.327 599.215 610.327 599.215C610.327 599.215 646.817 537.742 648.765 529.182C650.714 520.622 667.376 496.84 679.659 479.941C679.182 457.323 665.824 429.522 672.644 399.562C679.463 369.601 663.563 315.899 649.956 301.548C636.35 287.196 603.025 245.847 602.702 237.333C602.38 228.818 553.251 195.127 538.427 186.126C523.603 177.125 544.621 195.976 482.278 173.346C419.935 150.715 385.044 168.097 370.457 170.403C355.87 172.71 345.731 195.725 316.478 197.508C287.225 199.291 233.804 251.845 230.76 265.221Z" fill="#C59132"/>
<path d="M397.745 603.358L369.888 597.017L422.923 428.375L397.745 603.358Z" fill="white" stroke="#C59132"/>
<path d="M478.844 247.052L450.987 240.711L425.674 416.285L478.844 247.052Z" fill="white" stroke="#C59132"/>
<path d="M242.964 395.289L249.305 367.432L417.947 420.466L242.964 395.289Z" fill="white" stroke="#C59132"/>
<path d="M599.27 476.388L605.611 448.531L430.037 423.218L599.27 476.388Z" fill="white" stroke="#C59132"/>
<path d="M277.389 531.384L262.099 507.082L419.168 425.218L277.389 531.384Z" fill="white" stroke="#C59132"/>
<path d="M586.682 336.783L571.391 312.481L429.612 418.647L586.682 336.783Z" fill="white" stroke="#C59132"/>
<path d="M314.938 274.931L339.24 259.641L421.104 416.71L314.938 274.931Z" fill="white" stroke="#C59132"/>
<path d="M509.539 584.224L533.841 568.934L427.676 427.155L509.539 584.224Z" fill="white" stroke="#C59132"/>
<path d="M297.302 553.984L278.237 532.515L419.776 426.029L297.302 553.984Z" fill="white" stroke="#C59132"/>
<path d="M570.542 311.35L551.478 289.881L429.003 417.835L570.542 311.35Z" fill="white" stroke="#C59132"/>
<path d="M292.338 294.844L313.807 275.78L420.293 417.319L292.338 294.844Z" fill="white" stroke="#C59132"/>
<path d="M534.972 568.085L556.441 549.021L428.486 426.546L534.972 568.085Z" fill="white" stroke="#C59132"/>
<path d="M241.15 425.442L242.851 396.781L418.231 421.567L241.15 425.442Z" fill="white" stroke="#C59132"/>
<path d="M605.929 447.084L607.629 418.423L430.549 422.298L605.929 447.084Z" fill="white" stroke="#C59132"/>
<path d="M420.88 238.693L449.541 240.394L424.755 415.774L420.88 238.693Z" fill="#259A47" stroke="#C59132"/>
<path d="M399.238 603.472L427.899 605.172L424.025 428.092L399.238 603.472Z" fill="white" stroke="#C59132"/>
<path d="M320.1 572.64L297.842 554.503L420.491 426.715L320.1 572.64Z" fill="white" stroke="#C59132"/>
<path d="M550.936 289.362L528.678 271.225L428.286 417.149L550.936 289.362Z" fill="white" stroke="#C59132"/>
<path d="M273.683 317.644L291.82 295.386L419.608 418.035L273.683 317.644Z" fill="white" stroke="#C59132"/>
<path d="M556.961 548.48L575.098 526.222L429.174 425.83L556.961 548.48Z" fill="white" stroke="#C59132"/>
<path d="M244.08 454.756L241.166 426.192L418.252 422.558L244.08 454.756Z" fill="white" stroke="#C59132"/>
<path d="M607.613 417.673L604.7 389.109L430.528 421.306L607.613 417.673Z" fill="white" stroke="#C59132"/>
<path d="M391.568 241.623L420.131 238.709L423.765 415.795L391.568 241.623Z" fill="white" stroke="#C59132"/>
<path d="M428.65 605.156L457.214 602.243L425.017 428.071L428.65 605.156Z" fill="white" stroke="#C59132"/>
<path d="M345.504 587.36L320.636 573.009L421.305 427.276L345.504 587.36Z" fill="white" stroke="#C59132"/>
<path d="M528.143 270.856L503.275 256.505L427.473 416.588L528.143 270.856Z" fill="white" stroke="#C59132"/>
<path d="M258.963 343.047L273.313 318.179L419.046 418.848L258.963 343.047Z" fill="white" stroke="#C59132"/>
<path d="M575.467 525.686L589.817 500.818L429.734 425.016L575.467 525.686Z" fill="white" stroke="#C59132"/>
<path d="M251.635 483.127L244.198 455.395L418.431 423.53L251.635 483.127Z" fill="white" stroke="#C59132"/>
<path d="M604.583 388.47L597.145 360.738L430.349 420.334L604.583 388.47Z" fill="white" stroke="#C59132"/>
<path d="M363.195 249.178L390.927 241.74L422.792 415.973L363.195 249.178Z" fill="white" stroke="#C59132"/>
<path d="M457.852 602.125L485.584 594.688L425.989 427.892L457.852 602.125Z" fill="white" stroke="#C59132"/>
<path d="M371.395 597.377L344.644 586.947L422.148 427.681L371.395 597.377Z" fill="white" stroke="#C59132"/>
<path d="M504.135 256.919L477.384 246.489L426.63 416.184L504.135 256.919Z" fill="white" stroke="#C59132"/>
<path d="M248.946 368.938L259.376 342.187L418.642 419.691L248.946 368.938Z" fill="white" stroke="#C59132"/>
<path d="M589.404 501.678L599.834 474.927L430.139 424.173L589.404 501.678Z" fill="white" stroke="#C59132"/>
<path d="M262.859 508.517L251.318 482.227L418.74 424.412L262.859 508.517Z" fill="white" stroke="#C59132"/>
<path d="M597.461 361.638L585.92 335.348L430.039 419.452L597.461 361.638Z" fill="white" stroke="#C59132"/>
<path d="M337.806 260.402L364.096 248.861L421.911 416.283L337.806 260.402Z" fill="white" stroke="#C59132"/>
<path d="M484.684 595.004L510.975 583.463L426.871 427.582L484.684 595.004Z" fill="white" stroke="#C59132"/>
<path d="M408.987 493.37C447.889 502.225 486.603 477.867 495.457 438.965C504.312 400.063 479.954 361.348 441.052 352.494C402.15 343.639 363.435 367.998 354.581 406.9C345.726 445.802 370.085 484.516 408.987 493.37Z" fill="#FEE56A"/>
<path d="M400.556 219.963C403.704 220.68 406.837 218.709 407.553 215.56C408.27 212.412 406.299 209.279 403.15 208.563C400.002 207.846 396.869 209.817 396.153 212.966C395.436 216.114 397.407 219.247 400.556 219.963Z" fill="black"/>
<path d="M444.137 201.61C447.285 202.327 450.418 200.356 451.134 197.207C451.851 194.059 449.88 190.926 446.731 190.21C443.583 189.493 440.45 191.464 439.734 194.613C439.017 197.761 440.988 200.894 444.137 201.61Z" fill="black"/>
<path d="M438.006 220.312C439.655 218.945 439.884 216.501 438.517 214.852C437.151 213.204 434.706 212.975 433.058 214.341L424.102 221.764C422.453 223.131 422.224 225.575 423.591 227.224C424.957 228.873 427.402 229.102 429.05 227.735L438.006 220.312Z" fill="#8E7744"/>
<path d="M408.215 190.584C409.355 192.396 411.749 192.941 413.562 191.801C415.374 190.661 415.919 188.267 414.779 186.454L408.584 176.608C407.444 174.796 405.05 174.251 403.237 175.391C401.425 176.532 400.88 178.926 402.02 180.738L408.215 190.584Z" fill="#F8F3BC"/>
<path d="M567.991 561.253C567.274 564.401 569.245 567.534 572.393 568.25C575.541 568.967 578.674 566.996 579.391 563.847C580.108 560.699 578.136 557.566 574.988 556.85C571.84 556.133 568.707 558.104 567.991 561.253Z" fill="black"/>
<path d="M586.337 604.827C585.621 607.976 587.592 611.109 590.74 611.825C593.888 612.542 597.021 610.571 597.738 607.422C598.454 604.274 596.483 601.141 593.335 600.425C590.187 599.708 587.054 601.679 586.337 604.827Z" fill="black"/>
<path d="M573.102 599.215L573.102 599.215C574.75 597.849 574.979 595.404 573.613 593.756L566.19 584.8C564.823 583.151 562.379 582.922 560.73 584.289L560.73 584.289C559.081 585.655 558.852 588.1 560.219 589.748L567.642 598.704C569.008 600.353 571.453 600.582 573.102 599.215Z" fill="#8E7744"/>
<path d="M597.363 568.907C595.551 570.048 595.006 572.442 596.146 574.254C597.286 576.067 599.68 576.612 601.493 575.471L611.339 569.276C613.151 568.136 613.696 565.742 612.556 563.93C611.415 562.117 609.021 561.572 607.209 562.713L597.363 568.907Z" fill="#F8F3BC"/>
<path d="M338.245 600.761C335.228 599.613 331.851 601.129 330.703 604.146C329.555 607.164 331.07 610.541 334.088 611.689C337.106 612.837 340.482 611.321 341.631 608.304C342.779 605.286 341.263 601.909 338.245 600.761Z" fill="black"/>
<path d="M292.539 612.859C289.522 611.711 286.145 613.227 284.997 616.244C283.849 619.262 285.364 622.639 288.382 623.787C291.399 624.935 294.776 623.419 295.925 620.402C297.073 617.384 295.557 614.007 292.539 612.859Z" fill="black"/>
<path d="M301.207 595.199C299.384 596.322 298.817 598.711 299.94 600.534C301.064 602.357 303.452 602.924 305.275 601.801L315.178 595.697C317.001 594.574 317.568 592.185 316.445 590.362C315.321 588.539 312.932 587.972 311.109 589.096L301.207 595.199Z" fill="#8E7744"/>
<path d="M326.574 628.781C325.697 626.828 323.402 625.955 321.449 626.831C319.495 627.708 318.622 630.003 319.499 631.956L324.262 642.569C325.138 644.523 327.433 645.396 329.387 644.519C331.34 643.642 332.213 641.348 331.337 639.394L326.574 628.781Z" fill="#F8F3BC"/>
<path d="M534.691 206.499C531.673 205.351 528.296 206.867 527.148 209.884C526 212.902 527.516 216.279 530.533 217.427C533.551 218.575 536.928 217.059 538.076 214.042C539.224 211.024 537.708 207.647 534.691 206.499Z" fill="black"/>
<path d="M488.984 218.597C485.966 217.449 482.589 218.965 481.441 221.982C480.293 225 481.808 228.377 484.826 229.525C487.844 230.673 491.221 229.157 492.369 226.14C493.517 223.122 492.001 219.745 488.984 218.597Z" fill="black"/>
<path d="M497.652 200.937C495.829 202.06 495.262 204.449 496.386 206.272C497.509 208.095 499.898 208.662 501.721 207.539L511.623 201.435C513.447 200.312 514.014 197.923 512.89 196.1C511.766 194.277 509.378 193.71 507.555 194.834L497.652 200.937Z" fill="#8E7744"/>
<path d="M523.019 234.519C522.142 232.566 519.848 231.693 517.894 232.569C515.94 233.446 515.067 235.741 515.944 237.695L520.707 248.307C521.584 250.261 523.878 251.134 525.832 250.257C527.786 249.38 528.659 247.086 527.782 245.132L523.019 234.519Z" fill="#F8F3BC"/>
<path d="M594.822 285.72C595.831 282.653 594.162 279.349 591.095 278.341C588.028 277.332 584.724 279 583.715 282.067C582.706 285.135 584.375 288.439 587.442 289.447C590.509 290.456 593.813 288.788 594.822 285.72Z" fill="black"/>
<path d="M580.644 240.616C581.653 237.549 579.984 234.245 576.917 233.237C573.85 232.228 570.546 233.896 569.537 236.963C568.529 240.031 570.197 243.335 573.264 244.343C576.331 245.352 579.635 243.684 580.644 240.616Z" fill="black"/>
<path d="M598.683 248.467C597.477 246.697 595.065 246.24 593.295 247.446C591.525 248.652 591.068 251.064 592.274 252.833L598.824 262.446C600.03 264.216 602.442 264.673 604.212 263.467C605.982 262.261 606.439 259.849 605.233 258.08L598.683 248.467Z" fill="#8E7744"/>
<path d="M566.296 275.343C568.208 274.378 568.975 272.046 568.01 270.134C567.044 268.223 564.712 267.456 562.801 268.421L552.417 273.665C550.506 274.63 549.739 276.962 550.704 278.874C551.669 280.785 554.001 281.552 555.913 280.587L566.296 275.343Z" fill="#F8F3BC"/>
<path d="M594.943 320.138C597.604 321.966 601.243 321.29 603.072 318.629C604.9 315.968 604.224 312.328 601.563 310.5C598.902 308.672 595.262 309.348 593.434 312.009C591.606 314.67 592.282 318.31 594.943 320.138Z" fill="black"/>
<path d="M642.212 319.173C644.874 321.001 648.513 320.325 650.341 317.664C652.169 315.003 651.494 311.363 648.832 309.535C646.171 307.707 642.532 308.383 640.704 311.044C638.876 313.705 639.551 317.345 642.212 319.173Z" fill="black"/>
<path d="M629.62 334.287C631.657 333.626 632.772 331.439 632.111 329.402C631.449 327.365 629.262 326.25 627.225 326.912L616.162 330.504C614.125 331.166 613.01 333.353 613.671 335.39C614.333 337.426 616.52 338.541 618.557 337.88L629.62 334.287Z" fill="#8E7744"/>
<path d="M612.9 295.666C613.291 297.771 615.315 299.161 617.42 298.771C619.526 298.38 620.916 296.356 620.525 294.251L618.402 282.814C618.011 280.708 615.988 279.318 613.882 279.709C611.777 280.1 610.387 282.123 610.777 284.229L612.9 295.666Z" fill="#F8F3BC"/>
<path d="M627.5 358.04C625.883 360.834 626.838 364.411 629.633 366.027C632.428 367.644 636.004 366.689 637.621 363.894C639.237 361.1 638.282 357.523 635.488 355.907C632.693 354.29 629.117 355.245 627.5 358.04Z" fill="black"/>
<path d="M632.117 405.093C630.5 407.887 631.455 411.464 634.25 413.08C637.045 414.697 640.621 413.742 642.238 410.947C643.854 408.153 642.899 404.576 640.105 402.96C637.31 401.343 633.734 402.298 632.117 405.093Z" fill="black"/>
<path d="M616.074 393.707C616.891 395.687 619.158 396.629 621.137 395.812C623.117 394.995 624.059 392.728 623.242 390.749L618.805 379.996C617.988 378.017 615.721 377.074 613.741 377.891C611.762 378.708 610.82 380.975 611.636 382.955L616.074 393.707Z" fill="#8E7744"/>
<path d="M653.286 374.049C651.218 374.602 649.988 376.727 650.541 378.796C651.093 380.865 653.218 382.094 655.287 381.542L666.526 378.541C668.595 377.988 669.824 375.863 669.272 373.794C668.719 371.725 666.594 370.496 664.525 371.048L653.286 374.049Z" fill="#F8F3BC"/>
<path d="M658.16 444.348C654.931 444.345 652.312 446.96 652.309 450.189C652.306 453.418 654.921 456.037 658.15 456.04C661.379 456.043 663.998 453.428 664.001 450.199C664.004 446.97 661.389 444.351 658.16 444.348Z" fill="black"/>
<path d="M619.719 471.874C616.49 471.871 613.87 474.486 613.868 477.715C613.865 480.944 616.48 483.563 619.709 483.566C622.937 483.569 625.557 480.954 625.56 477.725C625.562 474.496 622.947 471.877 619.719 471.874Z" fill="black"/>
<path d="M621.558 452.288C620.252 453.985 620.569 456.42 622.267 457.726C623.964 459.031 626.398 458.714 627.704 457.017L634.797 447.797C636.103 446.1 635.786 443.666 634.089 442.36C632.392 441.054 629.957 441.371 628.651 443.069L621.558 452.288Z" fill="#8E7744"/>
<path d="M657.189 474.685C655.676 473.17 653.221 473.168 651.705 474.681C650.19 476.194 650.187 478.649 651.7 480.164L659.919 488.397C661.431 489.912 663.887 489.914 665.402 488.401C666.918 486.888 666.92 484.433 665.407 482.918L657.189 474.685Z" fill="#F8F3BC"/>
<path d="M636.634 539.527C636.637 536.298 634.022 533.679 630.794 533.676C627.565 533.673 624.945 536.288 624.943 539.517C624.94 542.746 627.555 545.365 630.783 545.368C634.012 545.371 636.632 542.756 636.634 539.527Z" fill="black"/>
<path d="M609.109 501.086C609.112 497.857 606.497 495.238 603.268 495.235C600.04 495.232 597.42 497.847 597.417 501.076C597.414 504.305 600.029 506.924 603.258 506.927C606.487 506.93 609.106 504.315 609.109 501.086Z" fill="black"/>
<path d="M628.694 502.925C626.996 501.619 624.562 501.937 623.256 503.634C621.95 505.331 622.267 507.766 623.965 509.071L633.184 516.165C634.881 517.47 637.316 517.153 638.622 515.456C639.928 513.759 639.61 511.324 637.913 510.018L628.694 502.925Z" fill="#8E7744"/>
<path d="M606.297 538.555C607.813 537.042 607.815 534.587 606.302 533.071C604.789 531.556 602.334 531.554 600.818 533.066L592.586 541.285C591.071 542.798 591.068 545.253 592.581 546.768C594.094 548.284 596.549 548.286 598.065 546.773L606.297 538.555Z" fill="#F8F3BC"/>
<path d="M406.869 653.391C406.872 650.162 404.257 647.543 401.028 647.54C397.799 647.537 395.18 650.152 395.177 653.381C395.174 656.61 397.789 659.229 401.018 659.232C404.247 659.235 406.866 656.62 406.869 653.391Z" fill="black"/>
<path d="M379.345 614.95C379.348 611.721 376.733 609.102 373.505 609.099C370.276 609.096 367.656 611.711 367.653 614.94C367.651 618.169 370.266 620.788 373.494 620.791C376.723 620.794 379.343 618.179 379.345 614.95Z" fill="black"/>
<path d="M393.492 617.498L393.492 617.498C392.186 619.195 392.504 621.63 394.201 622.935L403.421 630.029C405.118 631.334 407.552 631.017 408.858 629.32L408.858 629.32C410.164 627.623 409.847 625.188 408.149 623.882L398.93 616.789C397.233 615.483 394.798 615.801 393.492 617.498Z" fill="#8E7744"/>
<path d="M376.532 652.42C378.047 650.907 378.049 648.452 376.536 646.936C375.023 645.421 372.568 645.418 371.053 646.931L362.82 655.15C361.305 656.663 361.303 659.118 362.816 660.633C364.329 662.149 366.784 662.151 368.299 660.638L376.532 652.42Z" fill="#F8F3BC"/>
<path d="M457.138 661.491C459.935 659.879 460.897 656.305 459.285 653.507C457.673 650.71 454.098 649.749 451.301 651.361C448.503 652.973 447.542 656.547 449.154 659.345C450.766 662.142 454.34 663.103 457.138 661.491Z" fill="black"/>
<path d="M476.665 618.433C479.463 616.821 480.424 613.247 478.812 610.449C477.2 607.652 473.625 606.691 470.828 608.303C468.031 609.915 467.069 613.489 468.681 616.287C470.293 619.084 473.868 620.045 476.665 618.433Z" fill="black"/>
<path d="M484.867 636.314C485.149 634.191 483.657 632.241 481.534 631.959C479.411 631.677 477.462 633.169 477.179 635.292L475.646 646.822C475.364 648.945 476.856 650.895 478.979 651.177C481.102 651.459 483.051 649.967 483.334 647.845L484.867 636.314Z" fill="#8E7744"/>
<path d="M442.811 634.732C444.879 635.288 447.007 634.062 447.563 631.994C448.119 629.926 446.893 627.799 444.825 627.243L433.591 624.223C431.523 623.667 429.396 624.893 428.84 626.961C428.284 629.029 429.51 631.156 431.578 631.712L442.811 634.732Z" fill="#F8F3BC"/>
<path d="M504.026 605.504C504.858 608.624 508.062 610.477 511.182 609.644C514.301 608.811 516.155 605.607 515.322 602.488C514.489 599.368 511.285 597.515 508.165 598.348C505.046 599.181 503.193 602.385 504.026 605.504Z" fill="black"/>
<path d="M540.562 635.51C541.395 638.63 544.599 640.483 547.718 639.65C550.837 638.817 552.691 635.613 551.858 632.494C551.025 629.374 547.821 627.521 544.701 628.354C541.582 629.187 539.729 632.391 540.562 635.51Z" fill="black"/>
<path d="M521.168 638.803C523.146 639.625 525.415 638.689 526.237 636.711C527.059 634.734 526.123 632.465 524.145 631.643L513.404 627.177C511.427 626.355 509.157 627.292 508.335 629.269C507.513 631.247 508.45 633.516 510.427 634.338L521.168 638.803Z" fill="#8E7744"/>
<path d="M533.581 598.591C532.508 600.444 533.142 602.816 534.995 603.888C536.849 604.961 539.221 604.327 540.293 602.474L546.118 592.405C547.19 590.551 546.557 588.179 544.703 587.107C542.85 586.035 540.478 586.668 539.405 588.522L533.581 598.591Z" fill="#F8F3BC"/>
<path d="M238.737 563.107C239.57 566.226 242.774 568.08 245.894 567.247C249.013 566.414 250.867 563.21 250.034 560.091C249.201 556.971 245.997 555.118 242.877 555.951C239.758 556.784 237.904 559.988 238.737 563.107Z" fill="black"/>
<path d="M275.274 593.114C276.107 596.234 279.311 598.087 282.431 597.254C285.55 596.421 287.404 593.217 286.571 590.098C285.738 586.978 282.534 585.125 279.414 585.958C276.295 586.791 274.442 589.995 275.274 593.114Z" fill="black"/>
<path d="M255.879 596.408C257.857 597.23 260.126 596.294 260.948 594.316C261.77 592.339 260.834 590.07 258.856 589.248L248.115 584.782C246.138 583.96 243.868 584.897 243.046 586.874C242.224 588.852 243.161 591.121 245.138 591.943L255.879 596.408Z" fill="#8E7744"/>
<path d="M268.293 556.194C267.221 558.048 267.855 560.42 269.708 561.492C271.562 562.565 273.934 561.931 275.006 560.078L280.831 550.009C281.903 548.155 281.27 545.783 279.416 544.711C277.562 543.639 275.191 544.272 274.118 546.126L268.293 556.194Z" fill="#F8F3BC"/>
<path d="M232.014 486.718C228.895 487.551 227.041 490.755 227.874 493.874C228.707 496.994 231.911 498.847 235.031 498.014C238.15 497.181 240.003 493.977 239.17 490.858C238.338 487.738 235.134 485.885 232.014 486.718Z" fill="black"/>
<path d="M202.005 523.254C198.886 524.087 197.033 527.291 197.866 530.41C198.698 533.53 201.902 535.383 205.022 534.55C208.141 533.717 209.995 530.513 209.162 527.394C208.329 524.274 205.125 522.421 202.005 523.254Z" fill="black"/>
<path d="M198.712 503.86C197.889 505.837 198.826 508.106 200.803 508.929C202.781 509.751 205.05 508.814 205.872 506.837L210.338 496.096C211.16 494.118 210.223 491.849 208.246 491.027C206.268 490.205 203.999 491.141 203.177 493.119L198.712 503.86Z" fill="#8E7744"/>
<path d="M233.629 517.687L233.629 517.687C232.557 519.54 233.19 521.912 235.044 522.985L245.113 528.809C246.966 529.882 249.338 529.248 250.411 527.395L250.411 527.395C251.483 525.541 250.849 523.169 248.996 522.097L238.927 516.272C237.073 515.2 234.701 515.833 233.629 517.687Z" fill="#F8F3BC"/>
<path d="M239.547 440.067C238.164 437.149 234.678 435.905 231.761 437.287C228.843 438.67 227.599 442.156 228.981 445.073C230.364 447.991 233.85 449.235 236.767 447.853C239.685 446.47 240.929 442.984 239.547 440.067Z" fill="black"/>
<path d="M198.193 417.151C196.811 414.233 193.325 412.989 190.407 414.371C187.489 415.754 186.245 419.24 187.628 422.157C189.01 425.075 192.496 426.319 195.414 424.937C198.331 423.554 199.576 420.068 198.193 417.151Z" fill="black"/>
<path d="M216.673 410.409C214.58 409.957 212.517 411.288 212.065 413.382C211.614 415.475 212.945 417.538 215.038 417.989L226.409 420.442C228.503 420.893 230.566 419.562 231.017 417.469C231.468 415.375 230.137 413.313 228.044 412.861L216.673 410.409Z" fill="#8E7744"/>
<path d="M209.377 447.248L209.377 447.248C207.361 446.528 205.142 447.579 204.422 449.596L200.511 460.551C199.791 462.568 200.842 464.786 202.859 465.506L202.859 465.506C204.876 466.226 207.095 465.175 207.815 463.158L211.725 452.203C212.445 450.186 211.394 447.968 209.377 447.248Z" fill="#F8F3BC"/>
<path d="M218.502 389.665C220.684 387.284 220.522 383.586 218.142 381.405C215.762 379.224 212.064 379.385 209.882 381.765C207.701 384.146 207.862 387.844 210.243 390.025C212.623 392.206 216.321 392.045 218.502 389.665Z" fill="black"/>
<path d="M224.139 342.724C226.32 340.343 226.159 336.646 223.779 334.464C221.398 332.283 217.7 332.444 215.519 334.824C213.338 337.205 213.499 340.903 215.879 343.084C218.26 345.265 221.958 345.104 224.139 342.724Z" fill="black"/>
<path d="M232.86 354.152L232.86 354.152C230.751 354.523 229.342 356.534 229.713 358.643L231.727 370.099C232.098 372.208 234.108 373.618 236.217 373.247L236.217 373.247C238.326 372.876 239.736 370.865 239.365 368.756L237.35 357.3C236.979 355.191 234.969 353.782 232.86 354.152Z" fill="#8E7744"/>
<path d="M200.479 364.429L200.479 364.429C200.385 362.289 198.575 360.631 196.436 360.724L184.815 361.231C182.675 361.324 181.016 363.134 181.11 365.273L181.11 365.273C181.203 367.413 183.013 369.072 185.152 368.978L196.774 368.471C198.913 368.378 200.572 366.568 200.479 364.429Z" fill="#F8F3BC"/>
<path d="M220.804 297.076C222.88 299.549 226.567 299.872 229.04 297.796C231.514 295.721 231.836 292.033 229.761 289.56C227.685 287.087 223.998 286.764 221.525 288.84C219.051 290.915 218.729 294.603 220.804 297.076Z" fill="black"/>
<path d="M266.61 308.789C268.685 311.262 272.373 311.585 274.846 309.509C277.319 307.434 277.642 303.746 275.566 301.273C273.491 298.8 269.804 298.477 267.33 300.553C264.857 302.628 264.535 306.316 266.61 308.789Z" fill="black"/>
<path d="M254.14 315.944L254.14 315.944C254.048 313.804 252.238 312.145 250.099 312.238L238.477 312.74C236.338 312.833 234.679 314.642 234.771 316.782L234.771 316.782C234.864 318.921 236.673 320.581 238.813 320.488L250.434 319.985C252.573 319.893 254.233 318.083 254.14 315.944Z" fill="#8E7744"/>
<path d="M248.178 282.499L248.178 282.499C250.312 282.686 252.192 281.108 252.379 278.974L253.393 267.386C253.579 265.253 252.001 263.372 249.868 263.186L249.868 263.186C247.734 262.999 245.854 264.577 245.667 266.711L244.653 278.299C244.467 280.432 246.045 282.313 248.178 282.499Z" fill="#F8F3BC"/>
<path d="M311.715 208.426C308.703 209.589 307.204 212.973 308.367 215.985C309.53 218.997 312.914 220.497 315.926 219.334C318.938 218.171 320.437 214.787 319.274 211.775C318.112 208.763 314.727 207.264 311.715 208.426Z" fill="black"/>
<path d="M285.801 247.97C282.789 249.133 281.29 252.517 282.453 255.529C283.616 258.541 287 260.041 290.012 258.878C293.024 257.715 294.523 254.331 293.36 251.319C292.198 248.307 288.813 246.808 285.801 247.97Z" fill="black"/>
<path d="M280.447 229.042C279.842 231.096 281.017 233.252 283.071 233.857C285.125 234.462 287.281 233.288 287.886 231.234L291.173 220.076C291.778 218.021 290.604 215.866 288.55 215.26C286.496 214.655 284.34 215.83 283.734 217.884L280.447 229.042Z" fill="#8E7744"/>
<path d="M321.76 237.069C319.802 236.202 317.512 237.086 316.645 239.044C315.777 241.002 316.661 243.292 318.619 244.159L329.255 248.871C331.213 249.738 333.503 248.854 334.371 246.896C335.238 244.938 334.354 242.647 332.396 241.78L321.76 237.069Z" fill="#F8F3BC"/>
<path d="M336.797 200.671C337.22 203.872 340.157 206.124 343.358 205.702C346.559 205.279 348.811 202.342 348.388 199.141C347.966 195.94 345.028 193.688 341.827 194.11C338.626 194.533 336.374 197.47 336.797 200.671Z" fill="black"/>
<path d="M369.149 235.15C369.571 238.351 372.509 240.603 375.71 240.181C378.91 239.758 381.163 236.821 380.74 233.62C380.317 230.419 377.38 228.167 374.179 228.589C370.978 229.012 368.726 231.949 369.149 235.15Z" fill="black"/>
<path d="M349.49 235.908C351.345 236.979 353.716 236.343 354.787 234.489C355.858 232.634 355.222 230.263 353.368 229.192L343.294 223.376C341.439 222.305 339.068 222.94 337.997 224.795C336.926 226.649 337.562 229.021 339.416 230.091L349.49 235.908Z" fill="#8E7744"/>
<path d="M366.998 197.637C365.695 199.337 366.016 201.771 367.716 203.074C369.415 204.377 371.849 204.055 373.152 202.356L380.23 193.125C381.533 191.425 381.212 188.991 379.512 187.688C377.813 186.385 375.379 186.707 374.076 188.406L366.998 197.637Z" fill="#F8F3BC"/>
<defs>
<filter id="filter0_d_294_2" x="119.354" y="122.272" width="608.075" height="607.274" filterUnits="userSpaceOnUse" color-interpolation-filters="sRGB">
<feFlood flood-opacity="0" result="BackgroundImageFix"/>
<feColorMatrix in="SourceAlpha" type="matrix" values="0 0 0 0 0 0 0 0 0 0 0 0 0 0 0 0 0 0 127 0" result="hardAlpha"/>
<feOffset dy="4"/>
<feGaussianBlur stdDeviation="2"/>
<feComposite in2="hardAlpha" operator="out"/>
<feColorMatrix type="matrix" values="0 0 0 0 0 0 0 0 0 0 0 0 0 0 0 0 0 0 0.25 0"/>
<feBlend mode="normal" in2="BackgroundImageFix" result="effect1_dropShadow_294_2"/>
<feBlend mode="normal" in="SourceGraphic" in2="effect1_dropShadow_294_2" result="shape"/>
</filter>
</defs>
</svg>
